<!-- icon666.com - MILLIONS vector ICONS FREE --><svg id="Capa_1" enable-background="new 0 0 512 512" viewBox="0 0 512 512" xmlns="http://www.w3.org/2000/svg"><g><path d="m426.995 92.827c-48.875-48.875-109.328-77.128-168.111-83.571-61.684-6.761-121.529 10.495-164.224 53.189-83.382 83.382-69.78 232.173 30.381 332.335 49.588 49.588 111.276 78.08 171.16 83.884 60.604 5.875 119.183-11.511 161.175-53.503 83.382-83.381 69.78-232.173-30.381-332.334z" fill="#f4d97f"></path><path d="m299.003 309.347h-27.524c-22.98 0-43.915 13.738-53.34 35.009-1.081 2.444-2.548 4.847-4.378 7.168-2.319 2.948-5.879 5.282-10.133 7.128-24.918 10.815-53.706-2.846-62.048-28.697-6.161-19.094-12.03-44.299-12.03-80.348 0-100.418 51.41-188.814 129.333-240.35-61.683-6.762-121.528 10.494-164.223 53.188-83.382 83.382-69.78 232.173 30.381 332.335 49.588 49.588 111.276 78.08 171.16 83.884 30.138-26.904 49.891-60.882 59.112-96.653 9.508-36.822-18.314-72.664-56.31-72.664z" fill="#f0c863"></path><path d="m361.023 158.798c-50.877-50.877-106.675-87.028-155.426-104.146-47.225-16.583-87.837-15.307-110.937 7.793-35.77 35.77-19.235 113.515 34.963 192.808 24.014 35.133 53.534 67.819 84.686 95.534 40.635 36.153 83.165 62.949 121.912 78.344 51.553 20.482 96.405 20.781 121.156-3.97 46.946-46.947 3.808-166.202-96.354-266.363z" fill="#f6ef9a"></path><path d="m205.598 54.652c-47.226-16.583-87.838-15.307-110.938 7.793-35.77 35.77-19.235 113.515 34.963 192.808-1.487-77.199 27.406-147.831 75.975-200.601z" fill="#f4d97f"></path><path d="m299.003 309.347h-27.524c-22.98 0-43.915 13.738-53.34 35.009-.968 2.188-2.262 4.339-3.831 6.432 40.635 36.153 83.165 62.949 121.912 78.344 8.411-14.816 14.847-30.649 19.092-47.12 9.509-36.823-18.313-72.665-56.309-72.665z" fill="#f4d97f"></path><path d="m299.002 333.182h-15.855l-3.821 6.804c-14.729 26.232-38.38 46.309-66.655 56.584l-3.671 1.335c-27.368 9.945-57.339 10.078-84.794.376-24.419-8.629-46.233-24.976-61.448-46.951l-12.565-18.147h-15.844c-22.423 0-38.85 21.161-33.243 42.872 19.042 73.737 86.005 128.113 165.565 128.113 79.856 0 146.637-54.675 165.565-128.114 5.606-21.711-10.819-42.872-33.234-42.872z" fill="#f6ef9a"></path><path d="m87.579 377.898c-9.457-7.567-17.842-16.489-24.821-26.568l-12.565-18.147h-15.844c-22.423 0-38.85 21.161-33.243 42.872 14.287 55.326 55.577 99.8 108.976 118.523-23.488-34.744-31.039-76.95-22.503-116.68z" fill="#f4d97f"></path><path d="m283.147 333.182h-11.668c-13.741 0-25.979 8.259-31.544 20.819-1.917 4.332-4.425 8.435-7.441 12.259-13.751 17.482-38.093 29.098-65.824 29.098-33.017 0-61.217-16.475-72.479-39.713-.265-.546-.53-1.091-.776-1.645-5.517-12.429-17.675-20.819-31.544-20.819h-11.678c-.072 1.285-.104 2.58-.104 3.886 0 26.891 13.111 57.082 34.293 80.515 21.086 23.325 50.169 39.952 82.288 39.952 64.384 0 116.581-66.809 116.581-120.467 0-1.305-.031-2.6-.104-3.885z" fill="#fbf2e3"></path><path d="m94.192 355.645c-.265-.546-.53-1.091-.776-1.645-5.517-12.429-17.675-20.819-31.544-20.819h-11.679c-.072 1.285-.104 2.58-.104 3.886 0 26.891 13.111 57.082 34.293 80.515-1.046-20.847 2.123-41.895 9.81-61.937z" fill="#f5deb6"></path><path d="m353.542 257.679c5.772 1.461 11.534 4.684 16.394 9.565 11.927 11.979 13.865 29.378 4.321 38.881-9.534 9.492-26.933 7.482-38.85-4.497-11.927-11.979-13.865-29.378-4.321-38.881 5.647-5.627 14.062-7.213 22.456-5.068z" fill="#e89fa9"></path><path d="m262.329 165.855c2.218 8.508.622 17.036-5.088 22.726-9.544 9.492-26.943 7.482-38.86-4.487-11.928-11.979-13.865-29.389-4.321-38.881 9.534-9.492 26.933-7.482 38.86 4.487 4.766 4.798 7.948 10.476 9.409 16.155z" fill="#e89fa9"></path><g fill="#4e5660"><path d="m275.582 152.583c-3.037-3.032-7.958-3.03-10.992.008l-8.783 8.795c-3.036 3.035-3.036 7.956 0 10.991 3.036 3.036 7.956 3.035 10.991 0l8.792-8.802c3.033-3.037 3.029-7.958-.008-10.992z"></path><path d="m367.11 244.111c-3.035-3.035-7.956-3.035-10.991 0l-8.796 8.796c-3.036 3.034-3.038 7.955-.004 10.991 3.031 3.033 7.954 3.04 10.991.004l8.8-8.8c3.035-3.034 3.035-7.956 0-10.991z"></path><path d="m317.647 233.702c-2.816 2.809-7.396 2.809-10.2.01-2.81-2.815-2.812-7.389-.005-10.195 4.266-4.266 2.259-11.673-3.739-13.059-.091-.021-.181-.049-.272-.066-.423-.082-.852-.121-1.281-.132-.068-.002-.136-.01-.204-.01-.071 0-.142.008-.213.01-.923.025-1.843.206-2.712.559-.081.033-.158.075-.238.11-.383.171-.757.365-1.114.601-.094.062-.182.135-.274.202-.329.239-.648.497-.945.794-2.809 2.81-7.38 2.81-10.19.001-2.821-2.822-2.823-7.379 0-10.2 3.035-3.035 3.035-7.956.001-10.992-3.035-3.035-7.956-3.034-10.992-.001-4.3 4.3-6.668 10.015-6.668 16.092 0 11.966 9.233 21.895 21.273 22.673.347 5.319 2.525 10.542 6.581 14.605 8.87 8.854 23.302 8.854 32.172 0 3.038-3.032 3.043-7.953.01-10.991-3.031-3.039-7.952-3.044-10.99-.011z"></path></g></g></svg>